<svg xmlns="http://www.w3.org/2000/svg" viewBox="0 0 1600 900" width="1600" height="900" role="img" aria-label="Kompositionsskiss för Aquarium v0 med provdata, tillstånd: inaktuell"><defs><linearGradient id="water" x1="0" y1="0" x2="0" y2="1"><stop offset="0" stop-color="#17495a"/><stop offset="0.6" stop-color="#0f3441"/><stop offset="1" stop-color="#0a2530"/></linearGradient><radialGradient id="lamp"><stop offset="0" stop-color="#fff3d4" stop-opacity="0.9"/><stop offset="1" stop-color="#fff3d4" stop-opacity="0"/></radialGradient><radialGradient id="amber"><stop offset="0" stop-color="#ffc766" stop-opacity="0.85"/><stop offset="1" stop-color="#ffc766" stop-opacity="0"/></radialGradient><filter id="blur" x="-10%" y="-50%" width="120%" height="200%"><feGaussianBlur stdDeviation="14"/></filter><filter id="shadow" x="-10%" y="-10%" width="120%" height="130%"><feDropShadow dx="0" dy="8" stdDeviation="10" flood-color="#000" flood-opacity="0.35"/></filter><filter id="still"><feColorMatrix type="saturate" values="0.08"/><feComponentTransfer><feFuncR type="linear" slope="0.72"/><feFuncG type="linear" slope="0.72"/><feFuncB type="linear" slope="0.72"/></feComponentTransfer></filter></defs><rect width="1600" height="900" fill="#071a21"/><g filter="url(#still)"><rect x="40" y="30" width="1520" height="840" rx="30" fill="url(#water)"/><path d="M78 790 C 104 675.0, 52 606.0, 84 560" stroke="#2f6b5e" stroke-width="7" fill="none" stroke-linecap="round" opacity="0.55"/><path d="M94 790 C 76 705.0, 112 654.0, 100 620" stroke="#2f6b5e" stroke-width="7" fill="none" stroke-linecap="round" opacity="0.55"/><path d="M110 790 C 124 730.0, 96 694.0, 116 670" stroke="#2f6b5e" stroke-width="7" fill="none" stroke-linecap="round" opacity="0.55"/><path d="M1522 790 C 1496 675.0, 1548 606.0, 1516 560" stroke="#2f6b5e" stroke-width="7" fill="none" stroke-linecap="round" opacity="0.55"/><path d="M1506 790 C 1524 705.0, 1488 654.0, 1500 620" stroke="#2f6b5e" stroke-width="7" fill="none" stroke-linecap="round" opacity="0.55"/><path d="M1490 790 C 1476 730.0, 1504 694.0, 1484 670" stroke="#2f6b5e" stroke-width="7" fill="none" stroke-linecap="round" opacity="0.55"/><polygon points="100,700 130,683 1490,683 1460,700" fill="#e3d6ba"/><rect x="100" y="700" width="1360" height="92" fill="#cbbb99"/><polygon points="1460,700 1490,683 1490,775 1460,792" fill="#b3a383"/><rect x="128" y="716" width="220" height="58" rx="8" fill="#b9a887" opacity="0.55"/><text x="142" y="739" font-family="-apple-system, 'SF Pro Display', 'Helvetica Neue', Helvetica, Arial, sans-serif" font-size="12" font-weight="600" fill="#3d3526" text-anchor="start" opacity="1" letter-spacing="1.4">TJÄNSTEN</text><text x="142" y="761" font-family="-apple-system, 'SF Pro Display', 'Helvetica Neue', Helvetica, Arial, sans-serif" font-size="14" font-weight="500" fill="#2c261b" text-anchor="start" opacity="1" letter-spacing="0">igång 14:52 · okänt nu</text><rect x="360" y="716" width="330" height="58" rx="8" fill="#b9a887" opacity="0.55"/><text x="374" y="739" font-family="-apple-system, 'SF Pro Display', 'Helvetica Neue', Helvetica, Arial, sans-serif" font-size="12" font-weight="600" fill="#3d3526" text-anchor="start" opacity="1" letter-spacing="1.4">BEMANNING</text><text x="374" y="761" font-family="-apple-system, 'SF Pro Display', 'Helvetica Neue', Helvetica, Arial, sans-serif" font-size="14" font-weight="500" fill="#2c261b" text-anchor="start" opacity="1" letter-spacing="0">Claude claude-opus-5 · Codex gpt-6-astra</text><rect x="702" y="716" width="230" height="58" rx="8" fill="#b9a887" opacity="0.55"/><text x="716" y="739" font-family="-apple-system, 'SF Pro Display', 'Helvetica Neue', Helvetica, Arial, sans-serif" font-size="12" font-weight="600" fill="#3d3526" text-anchor="start" opacity="1" letter-spacing="1.4">VILANDE</text><text x="716" y="761" font-family="-apple-system, 'SF Pro Display', 'Helvetica Neue', Helvetica, Arial, sans-serif" font-size="14" font-weight="500" fill="#2c261b" text-anchor="start" opacity="1" letter-spacing="0">2 uppgifter · senast kända</text><rect x="944" y="716" width="256" height="58" rx="8" fill="#b9a887" opacity="0.55"/><text x="958" y="739" font-family="-apple-system, 'SF Pro Display', 'Helvetica Neue', Helvetica, Arial, sans-serif" font-size="12" font-weight="600" fill="#3d3526" text-anchor="start" opacity="1" letter-spacing="1.4">TEKNISKT STÖD</text><text x="958" y="761" font-family="-apple-system, 'SF Pro Display', 'Helvetica Neue', Helvetica, Arial, sans-serif" font-size="14" font-weight="500" fill="#2c261b" text-anchor="start" opacity="1" letter-spacing="0">25 identitetsposter · inte agenter</text><rect x="1212" y="716" width="248" height="58" rx="8" fill="#b9a887" opacity="0.55"/><text x="1226" y="739" font-family="-apple-system, 'SF Pro Display', 'Helvetica Neue', Helvetica, Arial, sans-serif" font-size="12" font-weight="600" fill="#3d3526" text-anchor="start" opacity="1" letter-spacing="1.4">MOTORN</text><text x="1226" y="761" font-family="-apple-system, 'SF Pro Display', 'Helvetica Neue', Helvetica, Arial, sans-serif" font-size="14" font-weight="500" fill="#2c261b" text-anchor="start" opacity="1" letter-spacing="0">1 arbetade 14:52 · okänt nu</text><polygon points="130,503 150,492.0 450,492.0 430,503" fill="#f6f2e9"/><polygon points="430,503 450,492.0 450,672.0 430,683" fill="#cdc5b3"/><rect x="130" y="503" width="300" height="180" fill="#ebe5d8"/><rect x="152" y="528" width="256" height="132" rx="4" fill="#1b2f35"/><rect x="166" y="556" width="22" height="96" rx="2" fill="#c9b48a"/><rect x="192" y="568" width="22" height="84" rx="2" fill="#9fb3a5"/><rect x="218" y="552" width="22" height="100" rx="2" fill="#b7a3a0"/><rect x="244" y="574" width="22" height="78" rx="2" fill="#a8b6c2"/><rect x="270" y="560" width="22" height="92" rx="2" fill="#c2c09a"/><rect x="296" y="564" width="22" height="88" rx="2" fill="#9daab0"/><rect x="322" y="554" width="22" height="98" rx="2" fill="#c7a98b"/><rect x="348" y="562" width="22" height="90" rx="2" fill="#aab9a2"/><rect x="374" y="570" width="22" height="82" rx="2" fill="#d7cfbd"/><rect x="158" y="652" width="244" height="6" fill="#8d7f63"/><text x="130" y="438" font-family="-apple-system, 'SF Pro Display', 'Helvetica Neue', Helvetica, Arial, sans-serif" font-size="30" font-weight="600" fill="#f4f8f7" text-anchor="start" opacity="1" letter-spacing="0">Levererat</text><text x="130" y="464" font-family="-apple-system, 'SF Pro Display', 'Helvetica Neue', Helvetica, Arial, sans-serif" font-size="17" font-weight="400" fill="#bfd6d4" text-anchor="start" opacity="1" letter-spacing="0">9 åtaganden · senast kända</text><polygon points="480,463 500,452.0 920,452.0 900,463" fill="#f6f2e9"/><polygon points="900,463 920,452.0 920,672.0 900,683" fill="#cdc5b3"/><rect x="480" y="463" width="420" height="220" fill="#ebe5d8"/><rect x="500" y="486" width="380" height="176" rx="4" fill="#1b2f35"/><line x1="570" y1="486" x2="570" y2="548" stroke="#d9d2c2" stroke-width="2"/><path d="M562 548 l 14 0 l 8 14 l -30 0 Z" fill="#5d6e6c"/><rect x="520" y="612" width="100" height="10" rx="2" fill="#e9dfc9"/><rect x="526" y="622" width="6" height="36" fill="#bfb49c"/><rect x="608" y="622" width="6" height="36" fill="#bfb49c"/><rect x="554" y="596" width="34" height="16" rx="2" fill="#f7f1e2"/><path d="M580 596 l 8 0 l 0 6 Z" fill="#d8ceb8"/><rect x="525" y="566" width="22" height="50" rx="9" fill="none" stroke="#c9c2b2" stroke-width="2" stroke-dasharray="4 4"/><line x1="695" y1="486" x2="695" y2="548" stroke="#50615f" stroke-width="2"/><path d="M687 548 l 14 0 l 8 14 l -30 0 Z" fill="#5d6e6c"/><rect x="645" y="612" width="100" height="10" rx="2" fill="#56676b"/><rect x="651" y="622" width="6" height="36" fill="#46555a"/><rect x="733" y="622" width="6" height="36" fill="#46555a"/><line x1="820" y1="486" x2="820" y2="548" stroke="#50615f" stroke-width="2"/><path d="M812 548 l 14 0 l 8 14 l -30 0 Z" fill="#5d6e6c"/><rect x="770" y="612" width="100" height="10" rx="2" fill="#56676b"/><rect x="776" y="622" width="6" height="36" fill="#46555a"/><rect x="858" y="622" width="6" height="36" fill="#46555a"/><text x="480" y="398" font-family="-apple-system, 'SF Pro Display', 'Helvetica Neue', Helvetica, Arial, sans-serif" font-size="30" font-weight="600" fill="#f4f8f7" text-anchor="start" opacity="1" letter-spacing="0">Arbetade</text><text x="480" y="424" font-family="-apple-system, 'SF Pro Display', 'Helvetica Neue', Helvetica, Arial, sans-serif" font-size="17" font-weight="400" fill="#bfd6d4" text-anchor="start" opacity="1" letter-spacing="0">1 vid 14:52 · okänt nu</text><polygon points="950,403 966,394.2 1062,394.2 1046,403" fill="#f6f2e9"/><polygon points="1046,403 1062,394.2 1062,674.2 1046,683" fill="#cdc5b3"/><rect x="950" y="403" width="96" height="280" fill="#ebe5d8"/><rect x="942" y="372" width="112" height="34" rx="4" fill="#f1ebdd"/><rect x="966" y="380" width="64" height="18" rx="3" fill="#6f7d7b"/><polygon points="938,372 998,344 1058,372" fill="#e2dccd"/><text x="930" y="244" font-family="-apple-system, 'SF Pro Display', 'Helvetica Neue', Helvetica, Arial, sans-serif" font-size="30" font-weight="600" fill="#f4f8f7" text-anchor="start" opacity="1" letter-spacing="0">Väntade</text><text x="930" y="270" font-family="-apple-system, 'SF Pro Display', 'Helvetica Neue', Helvetica, Arial, sans-serif" font-size="17" font-weight="400" fill="#bfd6d4" text-anchor="start" opacity="1" letter-spacing="0">Bevakningen · senast kända</text><circle cx="950" cy="292" r="7" fill="#e8d7b0" stroke="#e8d7b0" stroke-width="2"/><text x="950" y="318" font-family="-apple-system, 'SF Pro Display', 'Helvetica Neue', Helvetica, Arial, sans-serif" font-size="12" font-weight="400" fill="#bfd6d4" text-anchor="middle" opacity="1" letter-spacing="0">i går</text><circle cx="1000" cy="292" r="7" fill="#e8d7b0" stroke="#e8d7b0" stroke-width="2"/><text x="1000" y="318" font-family="-apple-system, 'SF Pro Display', 'Helvetica Neue', Helvetica, Arial, sans-serif" font-size="12" font-weight="400" fill="#bfd6d4" text-anchor="middle" opacity="1" letter-spacing="0">i dag</text><circle cx="1050" cy="292" r="7" fill="none" stroke="#e8d7b0" stroke-width="2"/><text x="1050" y="318" font-family="-apple-system, 'SF Pro Display', 'Helvetica Neue', Helvetica, Arial, sans-serif" font-size="12" font-weight="400" fill="#bfd6d4" text-anchor="middle" opacity="1" letter-spacing="0">i morgon</text><polygon points="1150,513 1170,502.0 1470,502.0 1450,513" fill="#f6f2e9"/><polygon points="1450,513 1470,502.0 1470,672.0 1450,683" fill="#cdc5b3"/><rect x="1150" y="513" width="300" height="170" fill="#ebe5d8"/><polygon points="1140,513 1300,484 1460,513" fill="#f6f2e9"/><rect x="1172" y="534" width="256" height="128" rx="4" fill="#1b2f35"/><rect x="1236" y="560" width="3" height="42" fill="#d9d2c2"/><path d="M1226 560 l 22 0 l -6 -14 l -10 0 Z" fill="#5d6e6c"/><rect x="1208" y="600" width="44" height="18" rx="2" fill="#f7f1e2"/><rect x="1352" y="560" width="3" height="42" fill="#d9d2c2"/><path d="M1342 560 l 22 0 l -6 -14 l -10 0 Z" fill="#5d6e6c"/><rect x="1324" y="600" width="44" height="18" rx="2" fill="#f7f1e2"/><rect x="1190" y="618" width="220" height="10" rx="2" fill="#e9dfc9"/><text x="1150" y="452" font-family="-apple-system, 'SF Pro Display', 'Helvetica Neue', Helvetica, Arial, sans-serif" font-size="30" font-weight="600" fill="#ffe2b0" text-anchor="start" opacity="1" letter-spacing="0">Behöver dig</text><text x="1150" y="478" font-family="-apple-system, 'SF Pro Display', 'Helvetica Neue', Helvetica, Arial, sans-serif" font-size="17" font-weight="400" fill="#f0d6a8" text-anchor="start" opacity="1" letter-spacing="0">2 ärenden · senast kända 14:52</text></g><rect x="40" y="30" width="1520" height="96" rx="30" fill="#2a2a26" opacity="0.92"/><text x="80" y="76" font-family="-apple-system, 'SF Pro Display', 'Helvetica Neue', Helvetica, Arial, sans-serif" font-size="30" font-weight="600" fill="#ffe2b0" text-anchor="start" opacity="1" letter-spacing="0">Inaktuell · ingen ny observation sedan 14:52 (för 3 tim sedan)</text><text x="80" y="106" font-family="-apple-system, 'SF Pro Display', 'Helvetica Neue', Helvetica, Arial, sans-serif" font-size="16" font-weight="400" fill="#e8e2d2" text-anchor="start" opacity="1" letter-spacing="0">Bilden visar senast kända läge. Den föryngras inte av att sidan är öppen; vattnet står still och lamporna släcks tills en ny läsning lyckas.</text><text x="80" y="842" font-family="-apple-system, 'SF Pro Display', 'Helvetica Neue', Helvetica, Arial, sans-serif" font-size="13" font-weight="600" fill="#9fbcbb" text-anchor="start" opacity="1" letter-spacing="0.8">KOMPOSITIONSSKISS · PROVDATA, inte en observation av verksamheten · Aquarium v0, förslag för ägarens accept</text></svg>
